Coordinates
version=1
nRows=8
nColumns=63
inDegrees=yes

Units are S.I. units (second, meters, Newtons, ...)
If the header above contains a line with 'inDegrees', this indicates whether rotational values are in degrees (yes) or radians (no).

endheader
time	pelvis_tilt	pelvis_list	pelvis_rotation	pelvis_tx	pelvis_ty	pelvis_tz	hip_flexion_r	hip_adduction_r	hip_rotation_r	knee_angle_r	knee_angle_r_beta	ankle_angle_r	subtalar_angle_r	mtp_angle_r	hip_flexion_l	hip_adduction_l	hip_rotation_l	knee_angle_l	knee_angle_l_beta	ankle_angle_l	subtalar_angle_l	mtp_angle_l	L5_S1_Flex_Ext	L5_S1_Lat_Bending	L5_S1_axial_rotation	L4_L5_Flex_Ext	L4_L5_Lat_Bending	L4_L5_axial_rotation	L3_L4_Flex_Ext	L3_L4_Lat_Bending	L3_L4_axial_rotation	L2_L3_Flex_Ext	L2_L3_Lat_Bending	L2_L3_axial_rotation	L1_L2_Flex_Ext	L1_L2_Lat_Bending	L1_L2_axial_rotation	L1_T12_Flex_Ext	L1_T12_Lat_Bending	L1_T12_axial_rotation	Abs_r3	Abs_r2	Abs_r1	Abs_t1	Abs_t2	neck_flexion	neck_bending	neck_rotation	arm_flex_r	arm_add_r	arm_rot_r	elbow_flex_r	pro_sup_r	wrist_flex_r	wrist_dev_r	arm_flex_l	arm_add_l	arm_rot_l	elbow_flex_l	pro_sup_l	wrist_flex_l	wrist_dev_l
     14.83333333	      6.75954081	      3.01797246	    191.45758189	     -0.39107908	      0.85622684	      0.69717926	     32.74319090	     -3.09900591	    -28.83607905	     16.64718939	      0.29054827	      6.75350889	      8.09065748	      0.00000000	     -2.95550899	     -4.16876078	      0.41186881	     41.28152772	      0.72049858	     17.09632671	     -8.06889020	      0.00000000	      0.00278098	      0.31593501	     -2.78875989	      0.00516456	      0.42019356	     -2.96305738	      0.00456888	      0.76816437	     -2.96305738	      0.00317839	      0.76816437	     -2.44016490	      0.00258242	      0.64425466	     -2.26586741	      0.00158905	      0.48938332	     -2.09156992	      0.01986428	      3.57391997	    -15.51024587	      0.00000000	      0.00000000	     -0.00000000	      0.00000000	      0.00000000	    -23.26926606	    -10.57540249	     -2.64053733	     28.12737805	     42.78404372	      0.00000000	      5.00000014	     11.20326937	    -19.80922708	     19.92604707	     41.62148249	     46.71822732	      0.00000000	      5.00000014
     14.86666667	      6.20009468	      3.48549891	    190.22524780	     -0.44049066	      0.85777369	      0.69599975	     31.10270769	     -1.53672816	    -27.10888937	     19.96276552	      0.34841599	      8.82676589	      5.63631155	      0.00000000	     -0.58812252	     -4.63444688	      2.16967011	     49.52905071	      0.86444501	      7.53401217	    -13.17214376	      0.00000000	      0.00067336	      0.40439782	     -2.47967923	      0.00125049	      0.53784911	     -2.63465918	      0.00110626	      0.98325287	     -2.63465918	      0.00076958	      0.98325287	     -2.16971933	      0.00062528	      0.82464804	     -2.01473937	      0.00038476	      0.62641223	     -1.85975942	      0.00480971	      4.57462906	    -13.79123197	      0.00000000	      0.00000000	     -0.00000000	      0.00000000	      0.00000000	    -23.47159652	    -10.52360908	     -3.82031347	     28.64019786	     42.47777583	      0.00000000	      5.00000014	      9.87492759	    -18.74553730	     19.67868453	     41.85690771	     46.70443832	      0.00000000	      5.00000014
     14.90000000	      5.69854065	      3.74192315	    188.36844234	     -0.48932095	      0.86158128	      0.69419594	     28.82334654	      0.48946812	    -23.35429607	     22.27262706	      0.38873068	     10.65352294	      1.48268624	      0.00000000	      2.73034490	     -5.27641731	      1.98670992	     57.17208965	      0.99784120	     -1.00392514	    -15.25830686	      0.00000000	     -0.00032120	      0.45620352	     -2.02380487	     -0.00059649	      0.60675068	     -2.15029268	     -0.00052769	      1.10921323	     -2.15029268	     -0.00036710	      1.10921323	     -1.77082926	     -0.00029826	      0.93029021	     -1.64434146	     -0.00018353	      0.70665925	     -1.51785366	     -0.00229427	      5.16066543	    -11.25579556	      0.00000000	      0.00000000	     -0.00000000	      0.00000000	      0.00000000	    -22.98606099	    -10.10039576	     -6.04730361	     28.93891327	     41.99013231	      0.00000000	      5.00000014	      8.08972971	    -17.57102204	     18.82164317	     41.68548346	     46.78994502	      0.00000000	      5.00000014
     14.93333333	      5.26085460	      3.62402736	    186.26796262	     -0.53677041	      0.86714940	      0.69275008	     25.62943344	      1.86476349	    -21.06013862	     23.37370373	      0.40794809	     12.99417961	      0.89860201	      0.00000000	      6.83225336	     -5.65669986	      1.07366167	     63.69778444	      1.11173606	     -6.65331301	    -16.58058688	      0.00000000	     -0.00130605	      0.45508297	     -1.50859757	     -0.00242546	      0.60526035	     -1.60288492	     -0.00214570	      1.10648874	     -1.60288492	     -0.00149268	      1.10648874	     -1.32002288	     -0.00121279	      0.92800520	     -1.22573553	     -0.00074627	      0.70492352	     -1.13144818	     -0.00932896	      5.14798959	     -8.39036711	      0.00000000	      0.00000000	     -0.00000000	      0.00000000	      0.00000000	    -21.66376616	     -9.90170430	     -6.84038012	     28.85175721	     41.83553045	      0.00000000	      5.00000014	      6.05695818	    -16.45060837	     17.60012478	     41.09854126	     46.70490787	      0.00000000	      5.00000014
     14.96666667	      4.88333392	      3.24448975	    184.08228555	     -0.58240853	      0.87362198	      0.69153583	     21.82464885	      2.89797045	    -18.23700027	     23.15883935	      0.40419800	     15.14978465	      0.68325650	      0.00000000	     11.61068797	     -6.03134855	     -0.41428626	     68.87457319	      1.20208807	     -8.24007202	    -17.55858628	      0.00000000	     -0.00198103	      0.41570514	     -0.98187744	     -0.00367896	      0.55288783	     -1.04324478	     -0.00325463	      1.01074547	     -1.04324478	     -0.00226411	      1.01074547	     -0.85914276	     -0.00183958	      0.84770592	     -0.79777542	     -0.00113196	      0.64392726	     -0.73640808	     -0.01415027	      4.70253967	     -5.46090774	      0.00000000	      0.00000000	     -0.00000000	      0.00000000	      0.00000000	    -19.58494198	     -9.57808942	     -7.93801215	     28.46197799	     41.63323484	      0.00000000	      5.00000014	      3.75650000	    -15.43452495	     15.71711821	     40.40663039	     46.50488537	      0.00000000	      5.00000014
     15.00000000	      4.54891272	      2.73530135	    182.26015115	     -0.62604477	      0.88031142	      0.69096504	     17.62516221	      3.39118367	    -15.73741788	     21.91248310	      0.38244498	     16.97970959	      1.21640693	      0.00000000	     16.85621932	     -6.47731307	     -1.97210388	     72.09797471	      1.25834704	     -5.94738810	    -18.40894481	      0.00000000	     -0.00198159	      0.35660996	     -0.52735443	     -0.00368001	      0.47429125	     -0.56031408	     -0.00325555	      0.86706147	     -0.56031408	     -0.00226476	      0.86706147	     -0.46143513	     -0.00184010	      0.72719904	     -0.42847547	     -0.00113228	      0.55238884	     -0.39551582	     -0.01415428	      4.03404324	     -2.93298713	      0.00000000	      0.00000000	     -0.00000000	      0.00000000	      0.00000000	    -16.82978913	     -9.38392813	     -8.63612810	     27.74081119	     41.51453633	      0.00000000	      5.00000014	      1.47413718	    -14.86187809	     14.63438706	     39.53806131	     46.33351787	      0.00000000	      5.00000014
     15.03333333	      4.31503222	      2.08600676	    180.55149111	     -0.66756155	      0.88633422	      0.69069261	     13.62050885	      3.43958648	    -12.94971430	     20.46859553	      0.35724439	     18.34419831	      1.32855719	      0.00000000	     21.97363392	     -7.16676754	     -4.13155194	     72.31691344	      1.26216824	     -0.33098692	    -18.79692448	      0.00000000	     -0.00083158	      0.27953022	     -0.09488509	     -0.00154433	      0.37177520	     -0.10081541	     -0.00136621	      0.67964978	     -0.10081541	     -0.00095042	      0.67964978	     -0.08302445	     -0.00077221	      0.57001803	     -0.07709414	     -0.00047517	      0.43299231	     -0.07116382	     -0.00593992	      3.16210179	     -0.52772241	      0.00000000	      0.00000000	     -0.00000000	      0.00000000	      0.00000000	    -13.84746612	     -9.33635241	     -9.38835457	     27.50054250	     41.41657550	      0.00000000	      5.00000014	     -0.92607126	    -14.39200936	     13.06520335	     38.51345163	     45.98496614	      0.00000000	      5.00000014
     15.06666667	      4.19123043	      1.38180501	    179.62714342	     -0.70700057	      0.89118292	      0.69131833	      9.76567487	      2.98320470	    -11.54808229	     18.73429592	      0.32697515	     19.26955787	      1.98667833	      0.00000000	     26.53521506	     -7.67815846	     -6.06344163	     68.67313972	      1.19857240	      6.49064976	    -18.70931096	      0.00000000	     -0.00225397	      0.19259677	      0.21373439	     -0.00418585	      0.25615370	      0.22709279	     -0.00370305	      0.46827978	      0.22709279	     -0.00257606	      0.46827978	      0.18701759	     -0.00209304	      0.39274333	      0.17365920	     -0.00128792	      0.29833239	      0.16030080	     -0.01609990	      2.17869317	      1.18872658	      0.00000000	      0.00000000	     -0.00000000	      0.00000000	      0.00000000	    -10.74574263	     -9.58655352	     -9.38747234	     27.69756566	     41.44996355	      0.00000000	      5.00000014	     -3.11900988	    -14.48939494	     13.02008636	     37.02413289	     45.89744489	      0.00000000	      5.00000014
